<?xml version="1.0" standalone="no"?>
<!DOCTYPE svg PUBLIC "-//W3C//DTD SVG 20010904//EN"
 "http://www.w3.org/TR/2001/REC-SVG-20010904/DTD/svg10.dtd">
<svg version="1.0" xmlns="http://www.w3.org/2000/svg"
 width="500.000000pt" height="500.000000pt" viewBox="0 0 500.000000 500.000000"
 preserveAspectRatio="xMidYMid meet">
<metadata>
Created by potrace 1.14, written by Peter Selinger 2001-2017
</metadata>
<g transform="translate(0.000000,500.000000) scale(0.100000,-0.100000)"
fill="#000000" stroke="none">
<path d="M2315 4994 c-16 -2 -73 -9 -125 -15 -210 -24 -448 -87 -657 -175
-685 -286 -1211 -871 -1426 -1584 -74 -245 -102 -440 -102 -720 0 -280 28
-475 102 -720 242 -802 871 -1431 1673 -1673 245 -74 440 -102 720 -102 280 0
475 28 720 102 802 242 1431 871 1673 1673 74 245 102 440 102 720 0 280 -28
475 -102 720 -169 560 -530 1045 -1018 1366 -319 210 -659 337 -1055 394 -77
11 -451 22 -505 14z m95 -594 l0 -99 -32 -5 c-18 -3 -76 -10 -128 -16 -365
-42 -736 -228 -1019 -509 -539 -536 -682 -1348 -359 -2034 25 -52 38 -91 32
-96 -5 -4 -44 -27 -87 -50 l-77 -43 -50 104 c-325 681 -224 1512 257 2108 77
96 245 258 345 333 319 239 706 383 1096 406 21 1 22 -2 22 -99z m322 85
c1036 -121 1805 -1019 1765 -2060 -7 -184 -42 -378 -97 -546 -41 -126 -137
-339 -152 -339 -10 0 -168 91 -168 97 0 2 16 35 35 73 238 473 244 1069 15
1549 -230 480 -630 822 -1140 972 -85 25 -272 59 -326 59 -74 0 -74 0 -74 111
0 54 3 99 8 99 4 0 64 -7 134 -15z m278 -840 c38 -41 33 -87 -15 -135 -22 -21
-299 -255 -615 -520 -316 -264 -575 -485 -575 -490 0 -5 259 -226 575 -490
316 -265 593 -499 615 -520 31 -32 39 -46 39 -76 0 -73 -88 -110 -150 -62 -83
65 -1282 1074 -1296 1092 -22 27 -23 70 -2 104 9 15 279 248 600 517 778 653
718 605 763 605 27 0 44 -7 61 -25z m-1939 -2237 c364 -477 972 -751 1556
-700 455 39 833 212 1144 523 53 53 123 131 155 173 31 42 60 75 63 74 39 -18
161 -94 161 -101 0 -18 -119 -167 -210 -261 -437 -453 -1051 -674 -1670 -601
-472 56 -889 264 -1220 611 -93 97 -213 251 -208 266 3 9 145 95 160 97 4 1
35 -36 69 -81z"/>
</g>
</svg>
