<?xml version="1.0" standalone="no"?>
<!DOCTYPE svg PUBLIC "-//W3C//DTD SVG 20010904//EN"
 "http://www.w3.org/TR/2001/REC-SVG-20010904/DTD/svg10.dtd">
<svg version="1.0" xmlns="http://www.w3.org/2000/svg"
 width="500.000000pt" height="500.000000pt" viewBox="0 0 500.000000 500.000000"
 preserveAspectRatio="xMidYMid meet">
<metadata>
Created by potrace 1.14, written by Peter Selinger 2001-2017
</metadata>
<g transform="translate(0.000000,500.000000) scale(0.100000,-0.100000)"
fill="#000000" stroke="none">
<path d="M2315 4994 c-16 -2 -73 -9 -125 -15 -210 -24 -448 -87 -657 -175
-685 -286 -1211 -871 -1426 -1584 -74 -245 -102 -440 -102 -720 0 -280 28
-475 102 -720 242 -802 871 -1431 1673 -1673 245 -74 440 -102 720 -102 280 0
475 28 720 102 802 242 1431 871 1673 1673 74 245 102 440 102 720 0 280 -28
475 -102 720 -169 560 -530 1045 -1018 1366 -319 210 -659 337 -1055 394 -77
11 -451 22 -505 14z m95 -594 l0 -99 -32 -5 c-18 -3 -76 -10 -128 -16 -505
-59 -1009 -389 -1284 -842 -316 -520 -351 -1156 -94 -1701 41 -86 41 -89 23
-100 -11 -7 -50 -29 -88 -50 l-67 -39 -50 104 c-325 681 -224 1512 257 2108
77 96 245 258 345 333 319 239 706 383 1096 406 21 1 22 -2 22 -99z m385 78
c172 -21 415 -98 589 -185 193 -97 345 -205 504 -358 178 -170 297 -335 408
-560 229 -466 266 -1002 103 -1499 -40 -121 -136 -336 -150 -336 -7 0 -157 86
-167 95 -2 2 13 35 32 74 175 347 229 781 144 1171 -128 594 -561 1094 -1130
1304 -177 65 -363 106 -487 106 l-51 0 0 105 0 106 63 -6 c34 -4 98 -11 142
-17z m-437 -1361 c356 -300 655 -553 662 -562 19 -22 19 -88 0 -110 -36 -44
-1314 -1108 -1339 -1115 -38 -11 -86 13 -101 50 -27 66 -40 54 615 602 338
282 614 515 614 518 0 3 -277 236 -614 519 -552 461 -615 517 -621 548 -12 64
46 120 107 103 16 -5 320 -254 677 -553z m-1287 -1709 c363 -476 965 -748
1551 -700 375 31 682 146 972 366 101 76 257 232 331 330 l58 76 66 -37 c93
-52 101 -57 101 -67 0 -18 -116 -163 -205 -255 -613 -635 -1535 -800 -2320
-417 -220 108 -396 237 -571 418 -96 99 -217 254 -212 270 3 9 145 95 160 97
4 1 35 -36 69 -81z"/>
</g>
</svg>
